<?xml version="1.0" encoding="iso-8859-1"?>
<!-- Generator: Adobe Illustrator 19.0.0, SVG Export Plug-In . SVG Version: 6.00 Build 0)  -->
<svg version="1.1" id="Layer_1" xmlns="http://www.w3.org/2000/svg" xmlns:xlink="http://www.w3.org/1999/xlink" x="0px" y="0px"
	 viewBox="0 0 512 512" style="enable-background:new 0 0 512 512;" xml:space="preserve">
<path style="fill:#FFDB56;" d="M87.468,340.011H8.881c-4.905,0-8.881,3.975-8.881,8.881v149.657c0,4.906,3.977,8.881,8.881,8.881
	h78.586c4.905,0,8.881-3.975,8.881-8.881V348.892C96.349,343.986,92.373,340.011,87.468,340.011z"/>
<path style="fill:#FBA806;" d="M87.468,340.011H51.942v167.42h35.526c4.905,0,8.881-3.975,8.881-8.881V348.892
	C96.349,343.986,92.373,340.011,87.468,340.011z"/>
<path style="fill:#F77935;" d="M87.468,340.011H8.881c-4.905,0-8.881,3.975-8.881,8.881v34.344h96.349v-34.344
	C96.349,343.986,92.373,340.011,87.468,340.011z"/>
<path style="fill:#D9510D;" d="M87.468,340.011H51.942v43.225h44.407v-34.344C96.349,343.986,92.373,340.011,87.468,340.011z"/>
<rect y="383.239" style="fill:#3FC8F2;" width="96.346" height="60.406"/>
<rect x="51.942" y="383.239" style="fill:#0DAACE;" width="44.407" height="60.406"/>
<path style="fill:#FFDB56;" d="M226.018,205.162h-78.586c-4.905,0-8.881,3.975-8.881,8.881v284.505c0,4.906,3.977,8.881,8.881,8.881
	h78.586c4.905,0,8.881-3.975,8.881-8.881V214.044C234.9,209.137,230.923,205.162,226.018,205.162z"/>
<path style="fill:#FBA806;" d="M226.018,205.162h-35.526V507.43h35.526c4.905,0,8.881-3.975,8.881-8.881V214.044
	C234.9,209.137,230.923,205.162,226.018,205.162z"/>
<path id="SVGCleanerId_0" style="fill:#F77935;" d="M226.018,205.162h-78.586c-4.905,0-8.881,3.975-8.881,8.881v34.344H234.9
	v-34.344C234.9,209.137,230.923,205.162,226.018,205.162z"/>
<path style="fill:#D9510D;" d="M226.018,205.162h-35.526v43.225H234.9v-34.344C234.9,209.137,230.923,205.162,226.018,205.162z"/>
<rect x="138.55" y="248.384" style="fill:#3FC8F2;" width="96.346" height="60.394"/>
<rect x="190.489" y="248.384" style="fill:#0DAACE;" width="44.407" height="60.394"/>
<path style="fill:#FFDB56;" d="M364.568,340.011h-78.586c-4.905,0-8.881,3.975-8.881,8.881v149.657c0,4.906,3.977,8.881,8.881,8.881
	h78.586c4.905,0,8.881-3.975,8.881-8.881V348.892C373.45,343.986,369.473,340.011,364.568,340.011z"/>
<g>
	<path id="SVGCleanerId_0_1_" style="fill:#F77935;" d="M226.018,205.162h-78.586c-4.905,0-8.881,3.975-8.881,8.881v34.344H234.9
		v-34.344C234.9,209.137,230.923,205.162,226.018,205.162z"/>
</g>
<path style="fill:#FBA806;" d="M364.568,340.011h-31.973v167.42h31.973c4.905,0,8.881-3.975,8.881-8.881V348.892
	C373.45,343.986,369.473,340.011,364.568,340.011z"/>
<path style="fill:#F77935;" d="M364.568,340.011h-78.586c-4.905,0-8.881,3.975-8.881,8.881v34.344h96.349v-34.344
	C373.45,343.986,369.473,340.011,364.568,340.011z"/>
<rect x="277.1" y="383.239" style="fill:#3FC8F2;" width="96.346" height="60.406"/>
<path style="fill:#D9510D;" d="M364.568,340.011H332.38v43.225h41.07v-34.344C373.45,343.986,369.473,340.011,364.568,340.011z"/>
<rect x="332.378" y="383.239" style="fill:#0DAACE;" width="41.07" height="60.406"/>
<path style="fill:#FFDB56;" d="M503.119,145.726h-78.586c-4.905,0-8.881,3.975-8.881,8.881v343.94c0,4.906,3.977,8.881,8.881,8.881
	h78.586c4.905,0,8.881-3.975,8.881-8.881v-343.94C512,149.703,508.023,145.726,503.119,145.726z"/>
<path style="fill:#FBA806;" d="M503.119,145.726h-33.157v361.703h33.157c4.905,0,8.881-3.975,8.881-8.881v-343.94
	C512,149.703,508.023,145.726,503.119,145.726z"/>
<path style="fill:#F77935;" d="M503.119,145.726h-78.586c-4.905,0-8.881,3.975-8.881,8.881v34.345H512v-34.345
	C512,149.703,508.023,145.726,503.119,145.726z"/>
<rect x="415.651" y="188.949" style="fill:#3FC8F2;" width="96.346" height="60.394"/>
<path style="fill:#D9510D;" d="M503.119,145.726h-33.157v43.226H512v-34.345C512,149.703,508.023,145.726,503.119,145.726z"/>
<rect x="469.958" y="188.949" style="fill:#0DAACE;" width="42.039" height="60.394"/>
<path style="fill:#808080;" d="M41.072,228.553c-2.42,0-4.831-0.983-6.584-2.919c-3.293-3.634-3.016-9.252,0.618-12.545
	L180.762,81.134c2.889-2.616,7.145-3.043,10.499-1.054l132.883,78.923L457.83,36.676c3.619-3.31,9.237-3.06,12.548,0.557
	c3.311,3.62,3.062,9.238-0.557,12.549L331.271,176.56c-2.887,2.642-7.164,3.084-10.531,1.084L187.828,98.702L47.032,226.254
	C45.333,227.793,43.198,228.553,41.072,228.553z"/>
<path style="fill:#F77935;" d="M41.07,181.08c-20.99,0-38.065,17.076-38.065,38.066s17.076,38.066,38.065,38.066
	s38.066-17.076,38.066-38.066S62.059,181.08,41.07,181.08z"/>
<path style="fill:#D9510D;" d="M41.07,181.08c-4.134,0-8.112,0.671-11.842,1.896c15.207,4.991,26.223,19.314,26.223,36.17
	s-11.015,31.179-26.223,36.17c3.73,1.224,7.708,1.896,11.842,1.896c20.99,0,38.066-17.076,38.066-38.066S62.059,181.08,41.07,181.08
	z"/>
<path id="SVGCleanerId_1" style="fill:#F77935;" d="M186.725,51.345c-20.99,0-38.065,17.076-38.065,38.065
	s17.076,38.066,38.065,38.066s38.066-17.076,38.066-38.066S207.714,51.345,186.725,51.345z"/>
<g>
	<path id="SVGCleanerId_1_1_" style="fill:#F77935;" d="M186.725,51.345c-20.99,0-38.065,17.076-38.065,38.065
		s17.076,38.066,38.065,38.066s38.066-17.076,38.066-38.066S207.714,51.345,186.725,51.345z"/>
</g>
<path style="fill:#D9510D;" d="M186.725,51.345c-4.134,0-8.112,0.671-11.842,1.896c15.207,4.991,26.224,19.314,26.224,36.17
	s-11.015,31.179-26.224,36.17c3.73,1.224,7.708,1.896,11.842,1.896c20.99,0,38.066-17.076,38.066-38.066
	S207.714,51.345,186.725,51.345z"/>
<path style="fill:#F77935;" d="M325.276,128.91c-20.99,0-38.066,17.076-38.066,38.065s17.076,38.066,38.066,38.066
	s38.066-17.076,38.066-38.066S346.264,128.91,325.276,128.91z"/>
<path style="fill:#D9510D;" d="M325.276,128.91c-4.134,0-8.112,0.671-11.842,1.896c15.207,4.991,26.224,19.314,26.224,36.17
	s-11.017,31.179-26.224,36.17c3.73,1.224,7.708,1.896,11.842,1.896c20.99,0,38.066-17.076,38.066-38.066
	S346.264,128.91,325.276,128.91z"/>
<path style="fill:#F77935;" d="M463.826,4.57c-20.99,0-38.066,17.076-38.066,38.066S442.836,80.7,463.826,80.7
	c20.99,0,38.066-17.076,38.066-38.065S484.815,4.57,463.826,4.57z"/>
<path style="fill:#D9510D;" d="M463.826,4.57c-4.134,0-8.112,0.671-11.842,1.896c15.207,4.991,26.224,19.314,26.224,36.17
	s-11.017,31.179-26.224,36.17c3.73,1.224,7.708,1.896,11.842,1.896c20.99,0,38.066-17.076,38.066-38.065S484.815,4.57,463.826,4.57z
	"/>
<g>
</g>
<g>
</g>
<g>
</g>
<g>
</g>
<g>
</g>
<g>
</g>
<g>
</g>
<g>
</g>
<g>
</g>
<g>
</g>
<g>
</g>
<g>
</g>
<g>
</g>
<g>
</g>
<g>
</g>
</svg>
